<svg width="166" height="74" viewBox="0 0 166 74" fill="none" xmlns="http://www.w3.org/2000/svg">
<path fill-rule="evenodd" clip-rule="evenodd" d="M126.113 5.56445C108.957 5.56445 95.0427 19.4829 95.0427 36.6262C95.0427 53.7861 108.957 67.6879 126.096 67.6879C143.251 67.6879 157.166 53.7861 157.166 36.6262C157.166 19.4829 143.268 5.56445 126.113 5.56445Z M111.793 41.2839H141.519V50.7836H111.793V41.2839ZM125.699 27.2815L120.228 20.1012C119.821 19.5555 119.059 19.4531 118.534 19.8625C118.449 19.9307 118.382 19.9989 118.314 20.0842L111.81 28.3389V41.2839L118.28 32.9268C118.704 32.381 119.5 32.2787 120.042 32.7221C120.126 32.7903 120.194 32.8586 120.262 32.9438L125.75 40.1753C125.953 40.4482 126.292 40.6358 126.665 40.6358C127.037 40.6358 127.359 40.4482 127.579 40.1753L133.067 32.9438C133.491 32.381 134.287 32.2787 134.829 32.7051C134.913 32.7733 134.981 32.8415 135.049 32.9268L141.519 41.2839V28.3389L135.015 20.0842C134.592 19.5555 133.829 19.4702 133.304 19.8795C133.22 19.9477 133.152 20.0159 133.084 20.1012L127.613 27.2815C127.207 27.8102 126.444 27.9125 125.902 27.5032C125.835 27.435 125.767 27.3668 125.699 27.2815Z" fill="white"/>
<path d="M15.2953 34.2455C15.2953 37.0085 14.0927 38.5435 10.9421 38.5435H8.28282V30.084C8.62159 30.0499 9.77339 30.0158 10.1122 30.0158H11.0438C14.2451 30.0158 15.2953 31.4655 15.2953 34.2455ZM21.7318 44.7857C21.7318 40.6242 18.3611 39.1233 14.279 39.0381V38.8846C17.7513 38.6117 20.6139 37.1279 20.6139 33.5974C20.6139 29.6747 17.3787 28.9243 13.7708 28.9243C9.43463 28.9243 4.31926 29.0437 0 28.9243V30.0158C0.931606 29.9476 3.13358 30.084 3.13358 31.2438V48.5208C3.13358 49.6464 0.846914 49.834 0 49.834V50.9085C4.2007 50.7891 9.16361 50.9085 13.3643 50.9085C17.7683 50.8915 21.7318 49.3565 21.7318 44.7857ZM16.1761 44.4105C16.1761 47.9921 14.9904 49.6976 10.8574 49.6976H8.28282V39.6862H11.0268C14.7871 39.6862 16.1761 41.0335 16.1761 44.4105ZM49.7477 50.8574C47.7998 50.8574 45.8689 50.8233 43.921 50.8915V49.7999C44.8018 49.7999 47.2578 49.7317 47.2578 48.5208V32.4377H47.1901L38.2636 51.1473H37.3489L28.6596 32.4377H28.5918V48.5208C28.5918 49.7658 31.1495 49.7999 32.0642 49.7999L32.0981 50.8915C29.6759 50.7891 26.356 50.738 23.9677 50.8915V49.7999C24.8993 49.7999 27.1013 49.7147 27.1013 48.5208V31.2609C27.1013 30.1011 24.8146 30.0158 23.9677 30.0158L23.9338 28.9243C26.6947 29.0437 29.6589 29.0437 32.4368 28.9243L39.8727 44.6151L47.4272 28.9584C50.0865 29.0778 52.9491 29.0437 55.6084 28.9243V30.0158C54.7276 30.0158 52.4071 30.084 52.4071 31.2609V48.5037C52.4071 49.7147 54.6937 49.7829 55.6084 49.7829V50.8744C53.6605 50.8232 51.6787 50.8574 49.7477 50.8574ZM76.0868 39.8567C76.0868 44.1376 75.6803 50.124 69.5147 50.124C63.3492 50.124 62.9088 44.1546 62.9088 39.8567C62.9088 35.5758 63.3492 29.6236 69.5147 29.6236C75.6464 29.6406 76.0868 35.61 76.0868 39.8567ZM81.8458 39.8567C81.8458 32.5912 77.4419 28.532 69.4978 28.532C61.5537 28.532 57.1159 32.5741 57.1159 39.8567C57.1159 47.1393 61.5199 51.2155 69.4978 51.2155C77.4757 51.2155 81.8458 47.1564 81.8458 39.8567Z" fill="white"/>
</svg>
