<svg width="171" height="63" viewBox="0 0 171 63" fill="none" xmlns="http://www.w3.org/2000/svg">
<path fill-rule="evenodd" clip-rule="evenodd" d="M125.922 0C143.205 0 157.217 14.0046 157.217 31.2807C157.217 48.556 143.205 62.5613 125.922 62.5613C108.639 62.5613 94.6272 48.556 94.6272 31.2807C94.6272 14.0046 108.639 0 125.922 0ZM125.942 23.8329C121.616 23.8329 118.47 27.1863 118.47 31.2807V31.3212C118.47 35.4156 121.576 38.7284 125.902 38.7284C130.229 38.7284 133.373 35.375 133.373 31.2807V31.2393C133.373 27.145 130.268 23.8329 125.942 23.8329Z" fill="url(#paint0_radial_179_2619)"/>
<path fill-rule="evenodd" clip-rule="evenodd" d="M22.2501 24.3105V32.2387C22.2501 34.5207 23.3916 35.7019 25.2752 35.7019C27.1573 35.7019 28.2988 34.5602 28.2988 32.3378V24.3105H31.3836V32.2179C31.3836 36.4623 29 38.544 25.2342 38.544C21.4692 38.544 19.1661 36.4422 19.1661 32.3184V24.3105H22.2501ZM5.46607 24.1104C7.50988 24.1104 9.25268 24.7516 10.6743 25.8926L9.07162 28.2141C7.82953 27.3531 6.60831 26.8333 5.42658 26.8333C4.24559 26.8333 3.62418 27.374 3.62418 28.0547V28.0949C3.62418 28.7086 3.89109 29.0466 4.78698 29.3875L5.04718 29.4808L5.3402 29.5755L5.66767 29.6728L6.03123 29.774L6.43251 29.8805C6.50262 29.8987 6.57437 29.9172 6.6478 29.936L6.86417 29.9936L7.28207 30.1125C9.66159 30.8222 11.0179 31.8276 11.0914 33.9551L11.0946 34.1797C11.0946 36.9622 8.97177 38.524 5.9474 38.524C3.82386 38.524 1.6817 37.7837 0 36.2823L1.82177 34.1008C3.08323 35.1413 4.40579 35.8019 6.00776 35.8019C7.21666 35.8019 7.9657 35.3422 8.02602 34.5809L8.02997 34.4404C8.02997 33.8255 7.73164 33.4463 6.45899 33.0195L6.1477 32.92L5.79998 32.8181L5.41397 32.7129L4.82733 32.56L4.46149 32.4594L4.10899 32.3557C3.93615 32.303 3.76848 32.2488 3.60625 32.1924L3.2891 32.0767C1.63711 31.4424 0.623071 30.5198 0.563131 28.5616L0.560317 28.3347C0.560317 25.7921 2.60339 24.1104 5.46607 24.1104ZM142.365 24.3108L146.031 34.1799L149.695 24.3108H153.02L147.352 38.4244H144.629L138.96 24.3108H142.365ZM165.31 24.3108L170.978 38.4244H167.653L163.988 28.5553L160.323 38.4244H156.919L162.587 24.3108H165.31ZM45.8633 24.311C49.1392 24.311 51.1455 26.2111 51.2277 28.9773L51.2303 29.196C51.2303 32.4388 48.7074 34.1197 45.5631 34.1197H43.2197V38.324H40.1357V24.311H45.8633ZM69.6971 24.311V27.054H62.1872V29.8968H68.7955V32.6384H62.1872V35.5817H69.7977V38.324H59.1226V24.311H69.6971ZM84.5589 24.3109C87.7924 24.3109 89.7604 25.9796 89.8427 28.7528L89.8454 28.9755C89.8454 31.2374 88.6242 32.6591 86.8419 33.3197L90.2664 38.3239H86.6616L83.6573 33.8396H81.2342V38.3239H78.1495V24.3109H84.5589ZM100.414 24.311L106.983 32.9392V24.311H110.027V38.324H107.404L100.614 29.4157V38.324H97.5697V24.311H100.414ZM45.6033 27.0935H43.2197V31.3774H45.6637C47.1502 31.3774 48.0416 30.5215 48.1034 29.3832L48.1068 29.2154C48.1068 27.8345 47.1457 27.0935 45.6033 27.0935ZM84.2981 27.0934H81.2342V31.1174H84.3577C85.8069 31.1174 86.6589 30.373 86.7179 29.2607L86.7212 29.0954C86.7212 27.7741 85.8002 27.0934 84.2981 27.0934ZM37.7434 46.846V47.4791C37.7434 47.7733 37.6719 48.0667 37.5274 48.3609C37.4075 48.6054 37.2613 48.8102 37.0895 48.9742L36.9834 49.0677L36.5252 48.7534C36.7645 48.4197 36.9033 48.0775 36.9423 47.7263L36.9529 47.5752V46.846H37.7434ZM33.506 42.413C34.3777 42.413 34.9283 42.6307 35.4374 43.0315L35.5543 43.1272L34.8315 43.9978C34.4299 43.6634 34.0723 43.4698 33.4687 43.4698C32.6712 43.4698 32.0298 44.1437 31.9755 44.978L31.9718 45.1076C31.9718 46.0601 32.6275 46.7595 33.5514 46.7595C33.9159 46.7595 34.2467 46.6797 34.5183 46.5205L34.6311 46.4474V45.7026H33.4769V44.7128H35.7405V46.9755C35.2041 47.4298 34.4672 47.8022 33.5142 47.8022C31.943 47.8022 30.8456 46.7357 30.7764 45.2703L30.7729 45.1076C30.7729 43.6262 31.9278 42.413 33.506 42.413ZM52.0638 42.3228C52.9811 42.3228 53.5543 42.6083 54.0211 43.0339L54.1195 43.1272L53.3893 43.9681C52.987 43.6039 52.5772 43.3804 52.0563 43.3804C51.2153 43.3804 50.6 44.0475 50.5481 44.8877L50.5445 45.0182C50.5445 45.9112 51.163 46.6552 52.0563 46.6552C52.6021 46.6552 52.9543 46.4556 53.3249 46.1355L53.4266 46.0452L54.156 46.7818C53.6203 47.3553 53.0242 47.7128 52.0191 47.7128C50.5344 47.7128 49.4189 46.6038 49.3484 45.1768L49.3449 45.0182C49.3449 43.5368 50.4626 42.3228 52.0638 42.3228ZM1.32546 42.5021V46.6706H3.92438V47.7126H0.17875V42.5021H1.32546ZM41.171 42.5021V46.6706H43.7699V47.7126H40.0243V42.5021H41.171ZM46.001 42.5021V46.6706H48.6V47.7126H44.8543V42.5021H46.001ZM8.90814 42.5019V43.5215H6.11625V44.5791H8.57359V45.5987H6.11625V46.6928H8.94614V47.7124H4.97698V42.5019H8.90814ZM11.2129 42.5018L13.6553 45.7103V42.5018H14.7871V47.7123H13.8118L11.2867 44.4003V47.7123H10.1556V42.5018H11.2129ZM18.2616 42.5021C19.8465 42.5021 20.9576 43.5546 21.0276 44.9516L21.0311 45.1073C21.0311 46.5265 19.9711 47.6388 18.4184 47.709L18.2616 47.7126H16.2282V42.5021H18.2616ZM23.4396 42.5022V47.7127H22.2929V42.5022H23.4396ZM25.989 42.5018L28.4315 45.7103V42.5018H29.5633V47.7123H28.5879L26.0628 44.4003V47.7123H24.9317V42.5018H25.989ZM18.2616 43.5366H17.3749V46.6781H18.2616C19.1581 46.6781 19.7766 46.0989 19.8287 45.2409L19.8322 45.1073C19.8322 44.2247 19.2528 43.5935 18.3821 43.5403L18.2616 43.5366Z" fill="white"/>
<defs>
<radialGradient id="paint0_radial_179_2619" cx="0" cy="0" r="1" gradientUnits="userSpaceOnUse" gradientTransform="translate(126.295 31.2807) rotate(90) scale(31.2807 31.2936)">
<stop stop-color="white"/>
<stop offset="0.0558618" stop-color="white"/>
<stop offset="0.347535" stop-color="white" stop-opacity="0.596"/>
<stop offset="0.576707" stop-color="white" stop-opacity="0.377"/>
<stop offset="1" stop-color="white" stop-opacity="0"/>
</radialGradient>
</defs>
</svg>
